<svg xmlns="http://www.w3.org/2000/svg" fill="none" viewBox="0 0 200 200" width="100%" height="100%" role="img"><g clip-path="url(#github-action-cloudflare-pages_svg__a)"><path fill="#000" d="M86.331 149.109h2.39v6.599h4.169v2.118h-6.56zm9.03 4.383v-.026c0-2.504 1.991-4.532 4.65-4.532s4.626 2.007 4.626 4.507v.025c0 2.504-1.992 4.532-4.651 4.532-2.66 0-4.626-2.004-4.626-4.506m6.84 0v-.026c0-1.258-.897-2.353-2.215-2.353-1.319 0-2.178 1.069-2.178 2.328v.025c0 1.258.897 2.354 2.203 2.354s2.19-1.07 2.19-2.328m5.358.51v-4.89h2.423v4.844c0 1.258.626 1.854 1.586 1.854s1.586-.574 1.586-1.794v-4.907h2.423v4.831c0 2.815-1.586 4.045-4.034 4.045s-3.987-1.259-3.987-3.984m11.675-4.89h3.323c3.075 0 4.859 1.793 4.859 4.306v.025c0 2.512-1.81 4.382-4.909 4.382h-3.273v-8.715zm3.357 6.573c1.429 0 2.374-.796 2.374-2.203v-.026c0-1.395-.947-2.204-2.374-2.204h-.972v4.433zm8.295-6.575h6.888v2.118h-4.503v1.48h4.072v2.004h-4.072v3.115h-2.385zm10.209 0h2.388v6.599h4.171v2.118h-6.559zm12.795-.062h2.299l3.667 8.777h-2.558l-.63-1.557h-3.323l-.614 1.557h-2.511l3.667-8.777zm2.093 5.341-.961-2.478-.972 2.478zm6.949-5.277H167c1.316 0 2.229.351 2.804.946q.762.745.762 2.029v.025c0 1.331-.702 2.216-1.772 2.675l2.055 3.038h-2.756l-1.734-2.64h-1.045v2.64h-2.389v-8.715zm3.962 4.184c.812 0 1.28-.397 1.28-1.032v-.025c0-.684-.491-1.032-1.293-1.032h-1.561v2.093h1.576l-.002-.003zm7.12-4.186h6.927v2.054h-4.564v1.319h4.135v1.907h-4.135v1.382H181v2.055h-6.99zm-92.908 5.405c-.334.764-1.038 1.306-1.973 1.306-1.303 0-2.202-1.096-2.202-2.354v-.026c0-1.258.874-2.328 2.177-2.328.982 0 1.73.611 2.049 1.446h2.514c-.403-2.073-2.203-3.624-4.54-3.624-2.656 0-4.652 2.028-4.652 4.532v.025c0 2.503 1.967 4.507 4.627 4.507 2.271 0 4.05-1.492 4.518-3.488H81.1z"/><path fill="#fbad41" d="M60.099 144.422c-.176 0-.35.007-.523.012a.2.2 0 0 0-.081.02.29.29 0 0 0-.189.204l-.743 2.599c-.32 1.117-.201 2.149.337 2.907.494.701 1.315 1.112 2.313 1.16l4.03.245a.36.36 0 0 1 .349.328q.01.091-.02.178a.51.51 0 0 1-.438.341l-4.188.245c-2.276.105-4.724 1.965-5.583 4.232l-.302.8a.22.22 0 0 0 .097.276q.047.027.101.029h14.426a.39.39 0 0 0 .37-.28 10.5 10.5 0 0 0 .384-2.832c0-5.776-4.626-10.457-10.334-10.457"/><path fill="#f6821f" d="m53.803 157.662.267-.94c.32-1.117.202-2.149-.336-2.907-.495-.701-1.316-1.112-2.314-1.16l-18.909-.245a.4.4 0 0 1-.168-.043.4.4 0 0 1-.13-.116.4.4 0 0 1-.042-.347.52.52 0 0 1 .44-.341l19.086-.245c2.266-.104 4.714-1.964 5.573-4.232l1.089-2.88a.73.73 0 0 0 .032-.381C57.15 138.207 52.19 134 46.26 134c-5.467 0-10.105 3.57-11.77 8.532a5.53 5.53 0 0 0-3.924-1.099c-2.62.264-4.73 2.401-4.99 5.054a5.7 5.7 0 0 0 .143 1.978c-4.282.128-7.718 3.678-7.718 8.041q0 .594.085 1.163a.37.37 0 0 0 .365.321h34.92a.45.45 0 0 0 .432-.334"/></g><g clip-path="url(#github-action-cloudflare-pages_svg__b)"><path fill="#24292f" fill-rule="evenodd" d="M99.38 23C77.05 23 59 41.333 59 64.014c0 18.13 11.566 33.477 27.61 38.908 2.006.409 2.741-.882 2.741-1.968 0-.951-.066-4.21-.066-7.606-11.233 2.445-13.572-4.889-13.572-4.889-1.805-4.753-4.48-5.975-4.48-5.975-3.676-2.512.268-2.512.268-2.512 4.078.271 6.218 4.21 6.218 4.21 3.61 6.246 9.426 4.481 11.766 3.395.334-2.649 1.404-4.482 2.54-5.5-8.958-.951-18.384-4.482-18.384-20.236 0-4.482 1.604-8.148 4.144-11-.4-1.019-1.805-5.23.402-10.865 0 0 3.41-1.087 11.097 4.21a38.5 38.5 0 0 1 10.095-1.358c3.41 0 6.885.475 10.095 1.358 7.688-5.297 11.098-4.21 11.098-4.21 2.206 5.636.801 9.846.4 10.865 2.608 2.852 4.145 6.518 4.145 11 0 15.754-9.425 19.217-18.451 20.236 1.471 1.29 2.741 3.734 2.741 7.605 0 5.5-.066 9.914-.066 11.271 0 1.087.735 2.378 2.74 1.97 16.045-5.433 27.611-20.779 27.611-38.909C139.758 41.334 121.641 23 99.379 23" clip-rule="evenodd"/></g><path fill="#000" d="M97.273 128.409v-15h2.545v15zm-6.227-6.227v-2.546h14.999v2.546z"/><defs><clipPath id="github-action-cloudflare-pages_svg__a"><path fill="#fff" d="M18 134h163v24H18z"/></clipPath><clipPath id="github-action-cloudflare-pages_svg__b"><path fill="#fff" d="M59 23h81v80H59z"/></clipPath></defs></svg>