<svg xmlns="http://www.w3.org/2000/svg" fill="none" viewBox="0 0 200 200" width="100%" height="100%" role="img"><title>Dance | A electric mobility subscription company that makes it easy to explore your city with an electric bike or moped.</title><g clip-path="url(#client-dance_svg__a)"><mask id="client-dance_svg__b" width="142" height="55" x="29" y="72" maskUnits="userSpaceOnUse" style="mask-type:luminance"><path fill="#fff" d="M170.939 72.081H29.061v54.838H170.94V72.081Z"/></mask><g mask="url(#client-dance_svg__b)"><mask id="client-dance_svg__c" width="29" height="55" x="29" y="72" maskUnits="userSpaceOnUse" style="mask-type:luminance"><path fill="#fff" d="M57.967 72.081H29.061v54.739h28.906z"/></mask><g mask="url(#client-dance_svg__c)"><path fill="#000" fill-rule="evenodd" d="m44.36 72.084 10.33 10.392a11.34 11.34 0 0 1 3.29 7.947v18.06a11.27 11.27 0 0 1-3.277 7.947l-10.33 10.392-6.804-6.844 18.812-18.924c.872-.89.872-2.325 0-3.202L37.57 78.928zm-15.3 15.39 6.804-6.83c10.331 10.379 10.331 27.23 0 37.622l-6.803-6.844c6.579-6.605 6.579-17.33 0-23.947Z" clip-rule="evenodd"/></g><path fill="#000" fill-rule="evenodd" d="M79.916 85.742h-8.262v27.369h8.163c8.706 0 14.198-5.215 14.198-13.66.049-8.493-5.343-13.71-14.1-13.71Zm-.05 23.693h-3.71V89.467h3.71c6.085 0 9.548 3.726 9.548 9.984 0 6.209-3.463 9.984-9.548 9.984m24.24-16.542c-5.095 0-8.162 2.832-8.31 6.656h4.303c.099-2.235 1.534-3.427 3.958-3.427 2.474 0 4.007 1.39 4.007 4.023v.597l-4.996.496c-4.403.497-7.915 1.987-7.915 6.06 0 3.626 2.869 6.209 6.975 6.209 2.968 0 5.194-1.54 5.985-4.272h.099v3.875h4.156v-12.17c-.05-5.315-3.216-8.047-8.262-8.047m3.908 11.574c0 3.775-1.781 5.861-4.848 5.861-1.879 0-3.561-1.093-3.561-2.93 0-1.888 1.484-2.832 4.105-3.13l4.304-.497zm10.733-7.302c.841-2.782 2.918-4.272 5.788-4.272 4.353 0 6.48 2.98 6.431 7.352v12.865h-4.304v-11.623c0-3.676-1.336-5.365-3.958-5.365-2.671 0-3.957 1.838-3.957 5.067v11.921h-4.304V93.29h4.205v3.875zm23.697 13.164c-3.265 0-5.095-2.93-5.095-7.103 0-4.123 1.682-7.103 4.897-7.103 2.326 0 3.958 1.49 4.403 4.024h4.353c-.741-4.67-4.204-7.203-8.855-7.203-5.788 0-9.349 4.967-9.349 10.332 0 5.464 3.71 10.332 9.498 10.332 4.6 0 8.112-2.633 8.905-7.302h-4.403c-.445 2.483-2.078 4.023-4.354 4.023m10.043-7.104c0-5.513 3.363-10.332 9.25-10.332s9.746 4.819 9.102 11.723h-14.098c.198 3.626 2.276 5.712 5.293 5.712 2.572 0 3.661-1.738 4.156-3.328h4.303c-.791 3.924-3.908 6.557-8.706 6.557-5.887 0-9.3-4.818-9.3-10.332m9.25-7.103c-2.869 0-4.601 2.037-4.897 5.265h9.745c-.247-3.179-1.979-5.265-4.848-5.265" clip-rule="evenodd"/></g></g><defs><clipPath id="client-dance_svg__a"><path fill="#fff" d="M29 72h142v55H29z"/></clipPath></defs></svg>