<svg xmlns="http://www.w3.org/2000/svg" viewBox="0 0 200 200" width="100%" height="100%" role="img"><title>ScienceIO | Unlock the power of untapped healthcare data</title><path d="m38.056 85.342.95.961c2.525 3.119 4.159 8.096 4.156 13.702-.003 5.514-1.59 10.413-4.045 13.54l.018.018 8.398-8.49c2.765-2.796 2.768-7.331.003-10.128l-9.72-9.846zm-19.984 19.716 8.53 8.636c-2.525-3.116-4.156-8.093-4.156-13.699.003-5.514 1.59-10.413 4.045-13.54l-.018-.018-8.398 8.493c-2.765 2.796-2.768 7.331-.003 10.128"/><path d="m47.294 105.313-.95.961c-3.083 2.554-8.003 4.207-13.544 4.204-5.45-.003-10.293-1.607-13.381-4.091l-.018.018 8.392 8.496a7.02 7.02 0 0 0 10.011.003l9.727-9.834zm-19.49-20.217-8.539 8.63c3.082-2.554 8.002-4.204 13.543-4.204 5.451.003 10.293 1.607 13.385 4.091l.018-.018-8.396-8.496a7.02 7.02 0 0 0-10.01-.003Zm38.811 24.456q-2.394 0-4.048-.774-1.629-.774-2.493-2.122-.864-1.374-.864-3.097h3.431q0 .724.395 1.423.395.675 1.26 1.099.888.425 2.32.425 1.283 0 2.147-.375.864-.374 1.284-.974.42-.624.42-1.398 0-.975-.815-1.549-.815-.599-2.518-.749l-1.58-.125q-2.592-.224-4.147-1.623-1.53-1.423-1.53-3.746 0-1.748.814-2.996.814-1.275 2.271-1.948 1.482-.7 3.456-.7 2.05 0 3.53.725 1.481.724 2.296 2.047.814 1.299.814 3.072h-3.43q0-.75-.371-1.373-.345-.65-1.062-1.024-.69-.4-1.777-.4-1.036 0-1.728.35-.69.35-1.036.949-.346.6-.346 1.298 0 .85.617 1.499.617.624 1.95.724l1.58.15q1.925.15 3.382.824 1.456.675 2.246 1.823.814 1.149.814 2.772 0 1.722-.888 3.046-.888 1.299-2.543 2.023-1.63.724-3.85.724Zm15.424 0q-1.752 0-3.036-.599a6.4 6.4 0 0 1-2.123-1.598 6.9 6.9 0 0 1-1.259-2.248 8 8 0 0 1-.42-2.547v-.474q0-1.374.42-2.623a6.7 6.7 0 0 1 1.308-2.247 6.1 6.1 0 0 1 2.123-1.573q1.284-.6 2.962-.6 1.753 0 3.136.7a5.45 5.45 0 0 1 2.196 1.898q.84 1.223.938 2.846h-3.332a2.72 2.72 0 0 0-.889-1.748q-.74-.699-2.049-.699-1.135 0-1.9.55-.741.548-1.11 1.523-.371.948-.371 2.197 0 1.199.345 2.173.371.974 1.111 1.523.765.55 1.95.55.89 0 1.53-.325a2.54 2.54 0 0 0 1.013-.899q.395-.575.493-1.299h3.333q-.099 1.649-.963 2.897-.84 1.224-2.246 1.923-1.383.699-3.16.699m9.019-.474v-13.56h3.431v13.56zm-1.876-10.963v-2.597h5.307v2.597zm3.135-4.22q-1.013 0-1.506-.525-.47-.55-.47-1.373 0-.825.47-1.349.493-.525 1.506-.524 1.011 0 1.48.524.47.525.47 1.349t-.47 1.373q-.469.525-1.48.525m11.384 15.657q-1.728 0-3.036-.599a6.35 6.35 0 0 1-2.148-1.598 7.6 7.6 0 0 1-1.283-2.273 8 8 0 0 1-.42-2.547v-.474a8.1 8.1 0 0 1 .42-2.598 6.9 6.9 0 0 1 1.283-2.247 6.1 6.1 0 0 1 2.123-1.573q1.259-.6 2.913-.6 2.171 0 3.629.974a5.96 5.96 0 0 1 2.221 2.523 7.65 7.65 0 0 1 .741 3.346v1.248H98.27v-2.122h9.726l-1.062 1.049q0-1.299-.37-2.223t-1.135-1.423q-.74-.5-1.876-.5t-1.926.525-1.209 1.523q-.395.974-.395 2.347 0 1.274.395 2.273a3.4 3.4 0 0 0 1.209 1.548q.815.55 2.074.55t2.049-.5q.79-.525 1.012-1.274h3.159a5.75 5.75 0 0 1-1.135 2.448 5.56 5.56 0 0 1-2.148 1.623q-1.283.574-2.937.574m8.569-.474v-13.56h2.715v5.818h-.247q0-2.072.543-3.446.543-1.398 1.604-2.097 1.086-.7 2.691-.7h.148q2.394 0 3.629 1.574 1.234 1.548 1.234 4.644v7.767h-3.431v-8.066q0-1.25-.716-2.023-.692-.774-1.925-.774-1.26 0-2.049.799-.766.774-.766 2.098v7.966zm21.214.474q-1.752 0-3.036-.599a6.4 6.4 0 0 1-2.123-1.598 6.9 6.9 0 0 1-1.259-2.248 8 8 0 0 1-.419-2.547v-.474q0-1.374.419-2.623a6.7 6.7 0 0 1 1.308-2.247 6.1 6.1 0 0 1 2.123-1.573q1.284-.6 2.962-.6 1.754 0 3.135.7a5.45 5.45 0 0 1 2.197 1.898q.84 1.223.938 2.846h-3.332a2.72 2.72 0 0 0-.889-1.748q-.74-.699-2.049-.699-1.135 0-1.9.55-.74.548-1.111 1.523-.37.948-.37 2.197 0 1.199.345 2.173.37.974 1.111 1.523.765.55 1.95.55.89 0 1.531-.325a2.55 2.55 0 0 0 1.012-.899 3 3 0 0 0 .493-1.299h3.333q-.099 1.649-.963 2.897-.84 1.224-2.246 1.923-1.383.699-3.16.699m14.375 0q-1.728 0-3.036-.599a6.4 6.4 0 0 1-2.148-1.598 7.6 7.6 0 0 1-1.283-2.273 8 8 0 0 1-.42-2.547v-.474a8.1 8.1 0 0 1 .42-2.598 6.9 6.9 0 0 1 1.283-2.247 6.1 6.1 0 0 1 2.123-1.573q1.26-.6 2.913-.6 2.172 0 3.629.974a5.95 5.95 0 0 1 2.221 2.523 7.65 7.65 0 0 1 .741 3.346v1.248h-11.873v-2.122h9.725l-1.061 1.049q0-1.299-.37-2.223t-1.136-1.423q-.74-.5-1.876-.5t-1.925.525-1.21 1.523q-.395.974-.395 2.347 0 1.274.395 2.273a3.4 3.4 0 0 0 1.21 1.548q.815.55 2.073.55 1.26 0 2.049-.5.79-.525 1.012-1.274h3.16a5.8 5.8 0 0 1-1.136 2.448q-.839 1.048-2.147 1.623-1.284.574-2.938.574m10.469-2.747V93.121h3.506v13.684zm-2.048 2.273v-2.772h7.602v2.772zm0-15.458v-2.772h7.602v2.772zm19.178 15.932q-2.444 0-4.246-.874-1.777-.873-2.962-2.272a10.5 10.5 0 0 1-1.753-3.047q-.567-1.648-.567-3.171v-.55q0-1.672.592-3.321a9.2 9.2 0 0 1 1.777-3.022q1.21-1.349 2.987-2.147 1.778-.825 4.172-.824 2.37 0 4.147.824 1.777.798 2.962 2.147a9 9 0 0 1 1.802 3.022 9.8 9.8 0 0 1 .592 3.321v.55q0 1.523-.592 3.171a9.8 9.8 0 0 1-1.753 3.047q-1.16 1.398-2.962 2.272-1.777.874-4.196.874m0-3.296q1.382 0 2.468-.499a5.4 5.4 0 0 0 1.876-1.374 6.1 6.1 0 0 0 1.185-2.023q.42-1.149.42-2.422 0-1.374-.42-2.522a5.5 5.5 0 0 0-1.185-1.998 5.3 5.3 0 0 0-1.876-1.324q-1.11-.474-2.468-.474-1.383 0-2.493.474a5.5 5.5 0 0 0-1.901 1.324 6.1 6.1 0 0 0-1.185 1.998q-.395 1.148-.395 2.522 0 1.273.395 2.422.42 1.124 1.185 2.023a5.65 5.65 0 0 0 1.901 1.374q1.11.5 2.493.499"/></svg>