<svg xmlns="http://www.w3.org/2000/svg" viewBox="0 0 200 200" width="100%" height="100%" role="img"><title>Pave | Interim design and recruiting team</title><path d="M45 87.672h5.826v4.762Q53.907 87 60.462 87q5.435 0 8.796 3.473 3.36 3.418 3.361 9.916 0 4.034-1.68 7.115-1.626 3.082-4.482 4.762-2.802 1.681-6.275 1.681-3.249 0-5.658-1.121-2.353-1.176-3.698-3.305L50.882 127H45zm13.782 21.177q3.641 0 5.602-2.297 1.96-2.353 1.96-5.995 0-3.81-1.96-6.05-1.906-2.297-5.602-2.297a7.65 7.65 0 0 0-3.81 1.009q-1.737.951-2.801 2.8-1.008 1.793-1.008 4.202v.392q0 2.409 1.008 4.314 1.064 1.85 2.801 2.913 1.737 1.01 3.81 1.009m40.013-21.177h6.891l5.546 11.597 1.792 4.65 1.793-4.65 5.49-11.597h6.723l-13.501 25.715h-1.177zm43.601 26.275q-4.594 0-7.675-1.793-3.081-1.848-4.538-4.874-1.456-3.081-1.456-6.723 0-4.089 1.68-7.17 1.737-3.082 4.762-4.706 3.025-1.68 6.835-1.681 5.939 0 8.795 3.305 2.913 3.25 2.913 9.188 0 1.512-.168 3.137h-18.487q.617 3.418 2.409 4.93 1.848 1.513 5.098 1.513 2.69 0 4.426-.448a14.2 14.2 0 0 0 3.193-1.233l1.849 4.314q-1.401.897-3.81 1.568-2.409.673-5.826.673m5.434-15.518q.056-3.474-1.513-4.874-1.568-1.457-4.481-1.457-5.883 0-6.779 6.33zm-45.152 14.285h-6.891l-5.547-11.596-1.792-4.65-1.793 4.65-5.49 11.596h-6.723L87.944 87h1.176z"/></svg>