<svg xmlns="http://www.w3.org/2000/svg" viewBox="0 0 200 200" width="100%" height="100%" role="img"><title>Phantom | Creative Agency</title><path d="M94.52 75.45c-.12 1.18 2 1.7 1.9 0-.05-1.17-1.94-1.4-1.9 0m2.69-.96v.13c.14.55.35 1 1 1.12a.93.93 0 0 0 1.13-.67c.2-1.14-2-2-2.11-.58"/><path d="M111.34 102.26s.32 2.65.41 6.11c.06 2 0 3.93-.07 5.67a33 33 0 0 1-.77 5.63c-1.41 5.9-2 7.51-2 7.56s-.2.78-.67-.56c0 0-1.52-3.32-2.86-6.77-.77-2-1.42-3.82-1.95-5.51a40 40 0 0 1-1.33-5.39 1.055 1.055 0 0 0-1.05-.87c-.81 0-1.15.85-1.28 1.18-.24.6-1.15 3.61-1.9 6.18-.61 2.08-1.65 5.76-1.86 7-.16 1-.46 2.31-.79 1.37a81 81 0 0 1-3.48-7.82 54 54 0 0 1-1.74-5.2 14.3 14.3 0 0 1-.6-4.16.91.91 0 0 0-.67-.92.94.94 0 0 0-1 .48s-.26.53-.62 1.09-.73.39-.82.06a27 27 0 0 1-.48-2.69 59 59 0 0 1-.46-7.29v-.05a15 15 0 0 1 .76-4.79A19 19 0 0 1 88.28 88a20.8 20.8 0 0 1 4.44-4.88 1 1 0 0 0 .17-.18l.12-.17a2.1 2.1 0 0 0 .38-.69 1.66 1.66 0 0 0-.08-1s-.41-1-.75-2.27a7.5 7.5 0 0 1-.42-3.38A4.46 4.46 0 0 1 95.76 72a5 5 0 0 1 1.12-.14 3.12 3.12 0 0 1 2.18.85 8.46 8.46 0 0 1 2 3.74.92.92 0 0 0 .49.56 18 18 0 0 1 3.45 2.17 22 22 0 0 1 3.14 2.89 20.4 20.4 0 0 1 2.94 4.22A30 30 0 0 1 113 91a50 50 0 0 1 1.48 5.78c.343 1.645.52 3.32.53 5a6 6 0 0 1-.21 1.57c-.05.49-.61 0-1.05-.6s-.75-1.04-.75-1.04a.9.9 0 0 0-.78-.45.7.7 0 0 0-.28.05.88.88 0 0 0-.61.95m5.14-5.85a45.3 45.3 0 0 0-3.54-11.07 22.5 22.5 0 0 0-3.24-4.65 24.4 24.4 0 0 0-3.42-3.15 23 23 0 0 0-3.39-2.16 9.6 9.6 0 0 0-2.44-4.16 5.1 5.1 0 0 0-3.57-1.4 7 7 0 0 0-1.6.19 7.2 7.2 0 0 0-3.39 1.76 6 6 0 0 0-1.76 3.12 9.65 9.65 0 0 0 .45 4.39c.29 1 .61 1.93.74 2.29a22.8 22.8 0 0 0-4.78 5.32 21 21 0 0 0-2.4 5.14 17.3 17.3 0 0 0-.82 5.39c0 2.754.195 5.504.58 8.23.137.994.348 1.977.63 2.94q.17.528.46 1a1.57 1.57 0 0 0 1.33.82 2.12 2.12 0 0 0 1.4-.6 45 45 0 0 0 2.14 6.91 81 81 0 0 0 3.59 8.07c.22.41.9 1.67 2.12 1.67.55 0 1.34-.26 1.91-1.52a8.8 8.8 0 0 0 .6-2.17c.24-1.42 1.76-6.68 2.78-10a78 78 0 0 0 2.64 7.85c1.37 3.51 2.66 6.31 2.91 6.81l.06.11q.312.708.76 1.34a2.13 2.13 0 0 0 1.71.91 1.9 1.9 0 0 0 1.74-1.24 5 5 0 0 0 .24-.75c.12-.37.71-2.24 2-7.68a46.5 46.5 0 0 0 .9-11.86c0-.88-.06-1.78-.12-2.68.302.183.647.283 1 .29a1.6 1.6 0 0 0 .83-.22c1-.56 1.47-1.81 1.52-3.81a26.6 26.6 0 0 0-.57-5.46"/></svg>