<svg xmlns="http://www.w3.org/2000/svg" fill="none" viewBox="0 0 200 200" width="100%" height="100%" role="img"><title>Google</title><path fill="#000" d="M91.353 101.037c0 5.683-4.446 9.871-9.902 9.871s-9.902-4.188-9.902-9.871c0-5.723 4.446-9.871 9.902-9.871s9.902 4.148 9.902 9.871m-4.335 0c0-3.552-2.576-5.981-5.567-5.981s-5.568 2.43-5.568 5.981c0 3.516 2.577 5.981 5.568 5.981s5.567-2.47 5.567-5.981m25.697 0c0 5.683-4.446 9.871-9.902 9.871-5.457 0-9.902-4.188-9.902-9.871 0-5.719 4.445-9.871 9.902-9.871s9.902 4.148 9.902 9.871m-4.335 0c0-3.552-2.577-5.981-5.567-5.981s-5.568 2.43-5.568 5.981c0 3.516 2.577 5.981 5.568 5.981s5.567-2.47 5.567-5.981m24.806-9.275v17.722c0 7.289-4.299 10.267-9.381 10.267-4.784 0-7.663-3.2-8.749-5.817l3.774-1.571c.672 1.607 2.318 3.503 4.971 3.503 3.253 0 5.269-2.008 5.269-5.786v-1.42h-.151c-.971 1.198-2.84 2.243-5.198 2.243-4.936 0-9.458-4.299-9.458-9.83 0-5.572 4.522-9.907 9.458-9.907 2.354 0 4.223 1.046 5.198 2.207h.151v-1.606h4.116zm-3.809 9.311c0-3.476-2.319-6.017-5.269-6.017-2.991 0-5.497 2.54-5.497 6.017 0 3.44 2.506 5.945 5.497 5.945 2.95 0 5.269-2.505 5.269-5.945m10.596-19.698v28.928h-4.228V81.375zm16.476 22.911 3.364 2.243c-1.086 1.606-3.703 4.374-8.224 4.374-5.608 0-9.795-4.334-9.795-9.871 0-5.87 4.223-9.87 9.31-9.87 5.122 0 7.628 4.076 8.447 6.279l.449 1.121-13.195 5.466c1.01 1.98 2.581 2.99 4.784 2.99 2.207 0 3.738-1.086 4.86-2.732m-10.356-3.552 8.82-3.662c-.485-1.233-1.945-2.092-3.662-2.092-2.203 0-5.27 1.945-5.158 5.754M55.545 98.47v-4.19h14.112c.138.73.21 1.593.21 2.528 0 3.142-.86 7.027-3.628 9.795-2.692 2.804-6.132 4.299-10.69 4.299-8.446 0-15.549-6.88-15.549-15.327S47.103 80.25 55.55 80.25c4.672 0 8.001 1.834 10.502 4.224l-2.955 2.955c-1.793-1.683-4.223-2.991-7.552-2.991-6.168 0-10.992 4.971-10.992 11.14 0 6.168 4.824 11.139 10.992 11.139 4.001 0 6.28-1.607 7.74-3.067 1.183-1.183 1.962-2.875 2.27-5.184z"/></svg>