<svg xmlns="http://www.w3.org/2000/svg" fill="none" viewBox="0 0 200 200" width="100%" height="100%" role="img"><path fill="#000" fill-rule="evenodd" d="M127.882 119.32v-17.527h2.819v9.912l4.897-4.666h3.587l-5.293 5.101 5.416 7.18h-3.363l-4.007-5.294-1.237 1.184v4.11zm-13.676 0v-12.281h2.843v1.789a4.35 4.35 0 0 1 1.633-1.607q1.014-.569 2.325-.569 2.126 0 3.326 1.342t1.199 3.711v7.615h-2.868v-7.421q0-1.402-.643-2.14-.644-.737-1.905-.737-.89 0-1.582.471t-1.089 1.318q-.396.846-.396 1.982v6.527zm-8.682-2.007q1.064 0 1.855-.495.792-.495 1.225-1.426.432-.931.433-2.188 0-1.934-.94-3.046t-2.548-1.112q-1.632 0-2.584 1.112t-.953 3.046q0 1.257.434 2.188.431.93 1.236 1.426t1.842.495m-.618 2.394q-1.707 0-3.017-.834-1.312-.834-2.053-2.309-.742-1.475-.742-3.36 0-1.91.742-3.397t2.053-2.32q1.31-.835 3.017-.835 1.261 0 2.325.544 1.063.545 1.806 1.511v-1.668h2.844v12.281h-2.844v-1.668a5.1 5.1 0 0 1-1.806 1.523 5.1 5.1 0 0 1-2.325.532m-12.984-2.78q1.335 0 2.09-.701.754-.702.754-1.91 0-1.21-.754-1.934-.755-.725-2.09-.725h-5.219v5.27zm-.297-7.446q1.212 0 1.904-.665.693-.665.693-1.752 0-1.113-.692-1.741-.694-.629-1.954-.629h-4.873v4.787zm-7.865 9.839v-17.019h8.36q1.533 0 2.67.58 1.139.58 1.732 1.596.594 1.015.593 2.248 0 1.233-.643 2.188a3.96 3.96 0 0 1-1.755 1.438q1.459.484 2.238 1.584.78 1.1.779 2.598 0 1.354-.63 2.454a4.4 4.4 0 0 1-1.794 1.717q-1.163.615-2.72.616zm76.769-24.162q1.064 0 1.842-.484a3.25 3.25 0 0 0 1.212-1.366q.433-.882.433-2.091 0-1.837-.928-2.9-.927-1.065-2.534-1.065-1.634 0-2.573 1.064t-.94 2.901q0 1.209.433 2.091a3.2 3.2 0 0 0 1.225 1.366q.79.484 1.83.483m.148 7.446q-2.201 0-3.797-.943-1.595-.943-2.114-2.66l2.721-.7q.37.99 1.212 1.498.84.508 2.052.508 1.04 0 1.768-.363c.479-.234.869-.61 1.113-1.076q.384-.713.384-1.752v-1.62a5.2 5.2 0 0 1-1.793 1.426 5.25 5.25 0 0 1-2.312.508q-1.683 0-2.993-.786-1.311-.785-2.053-2.2-.742-1.413-.742-3.227t.742-3.24 2.053-2.223q1.31-.798 2.993-.798 1.26 0 2.324.507a4.8 4.8 0 0 1 1.781 1.45v-1.57h2.82v11.724q0 1.717-.755 2.962-.755 1.244-2.151 1.91-1.398.664-3.253.665m-19.637-4.98V85.342h2.844v1.789a4.35 4.35 0 0 1 1.633-1.608q1.013-.568 2.324-.568 2.126 0 3.327 1.341 1.199 1.342 1.199 3.711v7.615h-2.869v-7.421q0-1.402-.643-2.14-.643-.737-1.904-.737-.891 0-1.583.472-.693.471-1.088 1.317t-.396 1.982v6.527zm-5.219 0h2.869v-12.28h-2.869zm1.435-13.974q-.768 0-1.299-.532a1.75 1.75 0 0 1-.532-1.28q0-.75.532-1.294a1.75 1.75 0 0 1 1.299-.544q.766 0 1.323.544t.556 1.293q0 .75-.556 1.281a1.85 1.85 0 0 1-1.323.532m-6.604 13.973h2.82V80.097h-2.82zm-8.755 0v-12.28h2.845v2.151q.493-1.087 1.347-1.68.853-.592 2.016-.592.247 0 .433.012.184.012.408.06v2.635a4.4 4.4 0 0 0-.841-.072q-1.509 0-2.436 1.015-.927 1.016-.927 2.78v5.971zm-8.681-2.006q1.063 0 1.855-.496.792-.495 1.224-1.426.433-.93.433-2.188 0-1.933-.939-3.046-.942-1.111-2.548-1.112-1.633 0-2.585 1.112-.951 1.113-.952 3.046 0 1.258.433 2.188t1.237 1.426 1.842.496m-.618 2.393q-1.706 0-3.017-.834t-2.053-2.309-.742-3.36q0-1.91.742-3.396.742-1.487 2.053-2.321t3.017-.834q1.261 0 2.325.544a5.3 5.3 0 0 1 1.805 1.51v-1.667h2.844v12.28h-2.844v-1.668a5.05 5.05 0 0 1-1.805 1.523 5.1 5.1 0 0 1-2.325.532m-8.83-.12q-1.979 0-2.843-.895-.866-.894-.866-2.562v-6.818h-1.978v-2.272h1.978V82.15h2.844v3.192h2.621v2.272h-2.621v6.672q0 .654.396.943.396.29 1.162.29.396 0 1.063-.072v2.2a7 7 0 0 1-1.756.241m-13.874.12q-2.028 0-3.599-.677-1.57-.676-2.522-1.885t-1.25-2.805l3.018-.75q.222 1.089.804 1.863c.383.512.894.92 1.484 1.184q.902.411 2.04.411 1.681 0 2.758-.653 1.076-.652 1.076-1.861 0-.774-.458-1.233t-1.385-.762q-.928-.3-2.683-.64-2.028-.434-3.327-.992-1.297-.555-2.016-1.51-.717-.955-.717-2.454 0-1.57.841-2.708.84-1.135 2.337-1.728 1.497-.592 3.45-.592 1.78 0 3.141.604 1.361.605 2.227 1.68a6.6 6.6 0 0 1 1.236 2.502l-2.869.798q-.42-1.45-1.385-2.224-.964-.774-2.424-.774-1.533 0-2.485.605-.953.605-.953 1.595 0 .677.434 1.1.432.423 1.26.701.83.278 2.412.617 2.202.435 3.574 1.015t2.152 1.583q.78 1.005.779 2.648 0 1.62-.89 2.828-.89 1.209-2.461 1.861-1.571.654-3.6.653m-15.77 1.698c0 10.83-8.981 19.609-20.061 19.609S34 110.536 34 99.706s8.982-19.609 20.062-19.609 20.061 8.78 20.061 19.61m-28.043 0v-1.088c0-6.769 5.633-12.275 12.56-12.275h1.112v4.45h-1.113c-4.413 0-8.006 3.51-8.006 7.825v1.089zm15.963 1.088v-1.088H57.49v1.088c0 4.315-3.592 7.825-8.006 7.825h-1.113v4.451h1.113c6.926 0 12.559-5.507 12.559-12.276" clip-rule="evenodd"/></svg>