<svg xmlns="http://www.w3.org/2000/svg" fill="none" viewBox="0 0 200 200" width="100%" height="100%" role="img"><title>Stink Studios</title><g clip-path="url(#client-stink-studios_svg__a)"><path fill="#000" d="M19.344 103.277q.16 1.166.626 1.742.853 1.05 2.923 1.05 1.24 0 2.014-.277 1.467-.53 1.467-1.973 0-.842-.728-1.304-.728-.45-2.286-.796l-1.775-.404q-2.616-.6-3.617-1.303-1.695-1.177-1.695-3.681 0-2.285 1.638-3.796 1.638-1.512 4.812-1.512 2.65 0 4.515 1.43 1.878 1.42 1.968 4.132H25.84q-.09-1.535-1.319-2.181-.82-.427-2.036-.427-1.354 0-2.162.554-.807.553-.807 1.546 0 .911.796 1.362.512.3 2.184.703l2.89.704q1.899.462 2.866 1.235 1.501 1.2 1.502 3.473 0 2.33-1.764 3.877-1.751 1.534-4.96 1.534-3.274 0-5.152-1.511-1.877-1.524-1.877-4.177h3.344ZM43.71 91.519v3.012h-5.016v13.996h-3.527V94.531h-5.039v-3.012zm4.81 17.008h-3.481V91.519h3.48v17.008Zm1.795-17.008h3.674l6.678 11.873V91.519h3.264v17.008h-3.503l-6.848-12.08v12.08h-3.265zm15.405 0h3.447v7.004l6.472-7.004h4.528l-6.871 7.004 7.223 10.004h-4.504l-5.176-7.431-1.672 1.742v5.689H65.72zm27.656 11.758q.16 1.166.626 1.742.853 1.05 2.923 1.05 1.24 0 2.013-.277 1.468-.53 1.468-1.973 0-.842-.728-1.304-.728-.45-2.287-.796l-1.774-.404q-2.616-.6-3.617-1.303-1.695-1.177-1.695-3.681 0-2.285 1.638-3.796 1.638-1.512 4.812-1.512 2.65 0 4.515 1.43 1.878 1.42 1.968 4.132H99.87q-.09-1.535-1.32-2.181-.818-.427-2.035-.427-1.354 0-2.162.554-.807.553-.807 1.546 0 .911.796 1.362.512.3 2.184.703l2.89.704q1.899.462 2.866 1.235 1.501 1.2 1.501 3.473 0 2.33-1.763 3.877-1.751 1.534-4.96 1.534-3.275 0-5.152-1.511-1.877-1.524-1.877-4.177zm24.244-11.758v3.012h-5.016v13.996h-3.526V94.531h-5.04v-3.012zm1.239 0h3.561v10.454q0 1.754.409 2.562.637 1.43 2.776 1.43 2.127 0 2.764-1.43.41-.808.41-2.562V91.519h3.56v10.454q0 2.712-.83 4.223-1.548 2.769-5.904 2.769-4.357 0-5.915-2.769-.831-1.511-.831-4.223zm18.572 2.954v11.1h3.23q2.481 0 3.459-2.481.535-1.36.535-3.242 0-2.596-.808-3.98-.797-1.397-3.186-1.397zm3.822-2.954q1.559.024 2.594.37 1.763.588 2.855 2.157a7.6 7.6 0 0 1 1.194 2.746q.319 1.477.319 2.816 0 3.392-1.343 5.746-1.82 3.173-5.619 3.173h-7.223V91.519zm11.759 17.008h-3.48V91.519h3.48zm9.269-2.539q2.08 0 3.299-1.557 1.228-1.558 1.228-4.431 0-2.861-1.228-4.42-1.218-1.568-3.299-1.569t-3.322 1.558q-1.238 1.558-1.239 4.431c-.001 2.873.414 3.392 1.239 4.431q1.24 1.557 3.322 1.557m8.031-5.988q0 4.58-2.537 7.015-1.899 1.985-5.494 1.985-3.593 0-5.495-1.985-2.547-2.434-2.547-7.015 0-4.673 2.547-7.015Q158.687 91 162.281 91t5.494 1.985q2.537 2.342 2.537 7.015m4.281 3.277q.16 1.166.625 1.742.854 1.05 2.924 1.05 1.24 0 2.014-.277 1.466-.53 1.466-1.973 0-.842-.728-1.304-.728-.45-2.286-.796l-1.775-.404q-2.616-.6-3.616-1.303-1.695-1.177-1.695-3.681 0-2.285 1.638-3.796 1.637-1.512 4.812-1.512 2.649 0 4.515 1.43 1.877 1.42 1.968 4.132h-3.368q-.09-1.535-1.319-2.181-.819-.427-2.035-.427-1.355 0-2.162.554-.808.553-.808 1.546 0 .911.797 1.362.512.3 2.184.703l2.89.704q1.899.462 2.865 1.235 1.502 1.2 1.502 3.473 0 2.33-1.764 3.877-1.751 1.534-4.959 1.534-3.275 0-5.153-1.511-1.876-1.524-1.877-4.177z"/></g><defs><clipPath id="client-stink-studios_svg__a"><path fill="#fff" d="M16 91h169v18H16z"/></clipPath></defs></svg>