<svg xmlns="http://www.w3.org/2000/svg" fill="none" viewBox="0 0 200 200" width="100%" height="100%" role="img"><title>Paco Rabanne</title><path fill="#000" d="M22.894 103.21c1.888 0 3.461-1.297 3.461-3.56 0-2.261-1.573-3.588-3.461-3.588s-3.433 1.327-3.433 3.589 1.574 3.559 3.433 3.559m-3.376-.121s.372.573.372 1.327V109H16V93.559h3.862v1.085c0 .694-.372 1.297-.372 1.297 1-1.99 2.889-2.774 4.491-2.774 3.461 0 5.892 2.443 5.892 6.333 0 3.86-2.574 6.303-5.892 6.303-1.574.03-3.49-.724-4.463-2.714m18.966-7.027c-1.888 0-3.461 1.327-3.461 3.589s1.573 3.559 3.46 3.559c1.889 0 3.433-1.297 3.433-3.56 0-2.291-1.573-3.588-3.432-3.588m3.032 9.409v-1.115c0-.755.372-1.327.372-1.327a5.04 5.04 0 0 1-4.491 2.804c-3.376 0-5.893-2.352-5.893-6.182 0-3.92 2.431-6.454 5.921-6.454 1.574 0 3.49.784 4.491 2.775 0 0-.371-.604-.371-1.237v-1.146h3.861v11.943h-3.89zm19.366-4.855c-.544 3.408-3.404 5.217-6.751 5.217-3.69 0-6.837-2.111-6.837-6.333 0-4.162 3.147-6.333 6.837-6.333 3.318 0 6.179 1.96 6.75 5.277h-3.518c-.4-1.507-1.602-2.443-3.204-2.443-1.916 0-3.404 1.328-3.404 3.499s1.46 3.468 3.376 3.468c1.602 0 2.832-.844 3.232-2.352zm8.353-4.644c-1.888 0-3.433 1.327-3.433 3.528s1.545 3.499 3.433 3.499 3.403-1.328 3.403-3.499-1.515-3.528-3.403-3.528m0-2.775c3.632 0 6.922 2.111 6.922 6.303s-3.29 6.303-6.922 6.303c-3.633 0-6.923-2.111-6.923-6.303s3.26-6.303 6.923-6.303m17.906 1.568c0 .845-.429 1.659-.429 1.659 1.059-2.262 2.66-3.257 4.377-3.257.83 0 1.43.12 2.06.392v3.89c-.716-.633-1.603-.934-2.604-.934-1.945 0-3.404.995-3.404 3.136v5.82H83.28V93.559h3.862zm13.96 1.297c-1.888 0-3.462 1.327-3.462 3.589s1.574 3.559 3.462 3.559c1.887 0 3.432-1.297 3.432-3.56 0-2.291-1.573-3.588-3.432-3.588m3.032 9.409v-1.115c0-.755.372-1.327.372-1.327a5.04 5.04 0 0 1-4.492 2.804c-3.375 0-5.892-2.352-5.892-6.182 0-3.92 2.431-6.454 5.921-6.454 1.574 0 3.49.784 4.491 2.775 0 0-.372-.604-.372-1.237v-1.146h3.862v11.943h-3.89zm13.158-2.261c1.888 0 3.462-1.297 3.462-3.56 0-2.261-1.574-3.588-3.462-3.588-1.887 0-3.432 1.327-3.432 3.589s1.573 3.559 3.432 3.559m7.009-3.68c0 3.921-2.432 6.333-5.922 6.333-1.573 0-3.49-.784-4.491-2.774 0 0 .372.603.372 1.297v1.085h-3.833V90h3.833v4.705c0 .724-.372 1.327-.372 1.327a5.01 5.01 0 0 1 4.491-2.805c3.347 0 5.922 2.443 5.922 6.303m8.381-3.468c-1.888 0-3.461 1.327-3.461 3.589s1.573 3.559 3.461 3.559 3.433-1.297 3.433-3.56c0-2.291-1.545-3.588-3.433-3.588m3.032 9.409v-1.115c0-.755.372-1.327.372-1.327a5.04 5.04 0 0 1-4.491 2.804c-3.375 0-5.893-2.352-5.893-6.182 0-3.92 2.432-6.454 5.921-6.454 1.574 0 3.491.784 4.492 2.775 0 0-.372-.604-.372-1.237v-1.146h3.833v11.943h-3.862zm10.098-10.796c0 .814-.43 1.538-.43 1.538 1.03-2.081 2.861-3.016 4.835-3.016 2.46 0 4.72 1.327 4.72 4.282v7.992h-3.862v-6.423c0-1.75-.858-2.715-2.546-2.715-1.745 0-2.689 1.026-2.689 2.684v6.484h-3.861V93.559h3.861v1.116zm15.104 0c0 .814-.43 1.538-.43 1.538 1.03-2.081 2.861-3.016 4.835-3.016 2.46 0 4.719 1.327 4.719 4.282v7.992h-3.861v-6.423c0-1.75-.858-2.715-2.546-2.715-1.745 0-2.689 1.026-2.689 2.684v6.484h-3.862V93.559h3.862v1.116zm20.595 3.257c-.286-1.206-1.344-2.081-3.003-2.081-1.631 0-2.804.814-3.175 2.08h6.178Zm-6.293 2.412c.172 1.689 1.487 2.685 3.318 2.685 1.459 0 2.546-.543 3.09-1.659h3.318c-.687 2.804-3.261 4.433-6.436 4.433-3.691 0-6.78-2.111-6.78-6.303 0-4.162 3.204-6.333 6.894-6.333 3.318 0 6.379 2.05 6.379 6.333 0 .302 0 .513-.057.814h-9.726z"/></svg>